<svg version="1.0" class="owl" xmlns="http://www.w3.org/2000/svg" width="30" height="32" viewBox="50 40 140.000000 200.000000" preserveAspectRatio="xMidYMid meet">
    <g transform="translate(0.000000,283.000000) scale(0.100000,-0.100000)" fill="#FFD76C" stroke="none">
        <circle cx="1490" cy="1760" r="180" fill="#FFD76C"></circle>
        <circle cx="890" cy="1760" r="180" fill="#FFD76C"></circle>
        <path d="M1776 2317 l-48 -67 -537 0 -538 0 -20 23 c-11 12 -31 40 -44 62
                l-24 40 -3 -964 c-1 -530 -1 -966 1 -968 7 -7 277 78 382 120 238 96 359 170
                483 295 219 221 341 500 403 922 15 96 16 528 2 574 l-9 30 -48 -67z m-357
                -152 c139 -29 248 -102 299 -200 23 -44 27 -65 30 -165 6 -185 -36 -313 -119
                -359 -33 -19 -53 -21 -224 -21 -184 0 -187 0 -208 24 l-21 24 -19 -24 c-18
                -24 -20 -24 -220 -24 -244 0 -250 2 -300 108 -32 67 -32 67 -32 232 0 164 0
                165 30 218 16 30 42 65 59 78 49 42 144 85 230 104 106 24 391 27 495 5z" 
                fill="#FFD76C" stroke="#000000">
        </path>
    </g>
</svg>